<svg width="24" height="24" viewBox="0 0 24 24" fill="none" xmlns="http://www.w3.org/2000/svg">
<path d="M11.9885 2.00004C14.5307 2.00004 16.6224 3.91929 16.88 6.38099L16.9516 6.38196C18.6947 6.38196 20.1528 7.69437 20.6564 9.98171L21.4419 16.0483C21.8909 19.8703 19.7043 22 16.046 22H7.94875C3.99286 22 1.97155 20.1106 2.61922 15.8124L3.38011 9.94236C3.80058 7.68312 5.29724 6.38196 7.07864 6.38196C7.19723 5.26852 7.69596 4.22318 8.50043 3.4261C9.42727 2.50777 10.6836 1.99462 11.9885 2.00004ZM16.9516 7.82969H7.07864C6.01393 7.82969 5.10614 8.6189 4.81697 10.1666L4.06021 16.0122C3.55418 19.3711 4.81775 20.5523 7.94875 20.5523H16.046C18.9375 20.5523 20.4105 19.0658 19.968 15.9973L19.2244 10.2299C18.8719 8.63797 17.9739 7.82969 16.9516 7.82969ZM14.8652 10.5164C15.267 10.5164 15.5927 10.8405 15.5927 11.2403C15.5927 11.6068 15.319 11.9096 14.9639 11.9576L14.8652 11.9642H14.8208C14.419 11.9642 14.0933 11.6401 14.0933 11.2403C14.0933 10.8738 14.367 10.571 14.7221 10.5231L14.8208 10.5164H14.8652ZM9.20951 10.5164C9.61129 10.5164 9.937 10.8405 9.937 11.2403C9.937 11.6068 9.66331 11.9096 9.30822 11.9576L9.20951 11.9642H9.16512C8.76333 11.9642 8.43762 11.6401 8.43762 11.2403C8.43762 10.8738 8.71131 10.571 9.0664 10.5231L9.16512 10.5164H9.20951ZM11.9855 3.44781C11.0644 3.44396 10.1797 3.80531 9.52708 4.45197C8.99739 4.97679 8.65593 5.65446 8.54607 6.38112L15.4137 6.38142C15.165 4.72127 13.7259 3.44782 11.9855 3.44781Z" fill="#200E32"/>
</svg>
