<?xml version="1.0"?>
<svg xmlns="http://www.w3.org/2000/svg" xmlns:xlink="http://www.w3.org/1999/xlink" xmlns:svgjs="http://svgjs.com/svgjs" version="1.1" width="512" height="512" x="0" y="0" viewBox="0 0 512 512" style="enable-background:new 0 0 512 512" xml:space="preserve" class=""><g transform="matrix(0.14,0,0,0.14,220.16003311395662,220.1600131225586)"><g xmlns="http://www.w3.org/2000/svg"><g><g><path d="m32.574 194.535h441.47v273.99c0 2.761-2.239 5-5 5h-431.47c-2.761 0-5-2.239-5-5z" fill="#e27f86" data-original="#e27f86" style=""/><path d="m452.986 194.535v273.99c0 2.761-2.239 5-5 5h21.058c2.761 0 5-2.239 5-5v-273.99z" fill="#df646e" data-original="#df646e" style=""/><path d="m62.585 401.313v-147.373c0-2.761 2.239-5 5-5h218.153c2.761 0 5 2.239 5 5v147.373c0 2.761-2.239 5-5 5h-218.152c-2.762 0-5.001-2.239-5.001-5z" fill="#4980ac" data-original="#4980ac" style=""/><path d="m285.739 248.94h-14.942v131.373c0 2.761-2.239 5-5 5h-203.212v16c0 2.761 2.239 5 5 5h218.153c2.761 0 5-2.239 5-5v-147.373c.001-2.762-2.238-5-4.999-5z" fill="#407194" data-original="#407194" style=""/><path d="m127.102 307.806v109.82c0 1.658 1.344 3.001 3.001 3.001h93.117c1.657 0 3.001-1.344 3.001-3.001v-109.82c0-1.658-1.344-3.001-3.001-3.001h-93.117c-1.657 0-3.001 1.344-3.001 3.001z" fill="#f9f7f7" data-original="#f9f7f7" style=""/><g><path d="m326.78 252.941v220.583h111.222v-220.583c0-2.21-1.792-4.002-4.002-4.002h-103.218c-2.21.001-4.002 1.792-4.002 4.002z" fill="#fce1de" data-original="#fce1de" style=""/><path d="m438.002 360.162h-111.222v-107.221c0-2.21 1.792-4.002 4.002-4.002h103.219c2.21 0 4.002 1.792 4.002 4.002v107.221z" fill="#4980ac" data-original="#4980ac" style=""/></g><path d="m32.574 156.617h441.47v-113.141c0-2.761-2.239-5-5-5h-431.47c-2.761 0-5 2.239-5 5z" fill="#e27f86" data-original="#e27f86" style=""/><path d="m62.586 124.539v-53.052c0-1.657 1.343-3 3-3h375.447c1.657 0 3 1.343 3 3v53.052z" fill="#fce1de" data-original="#fce1de" style=""/><path d="m32.574 124.556-24.114 51.329c-.713 1.518-1.059 3.193-.935 4.866 1.374 18.649 17.02 34.004 35.952 33.781 7.129-.084 13.752-2.264 19.286-5.951 4.163-2.773 9.62-2.805 13.778-.026 5.652 3.776 12.444 5.979 19.752 5.979 7.243 0 13.978-2.164 19.6-5.878 4.251-2.809 9.792-2.809 14.043 0 5.622 3.715 12.357 5.878 19.6 5.878s13.978-2.164 19.6-5.878c4.251-2.809 9.792-2.809 14.043 0 5.622 3.715 12.357 5.878 19.6 5.878s13.978-2.164 19.6-5.878c4.251-2.809 9.792-2.809 14.043 0 5.622 3.715 12.357 5.878 19.6 5.878s13.978-2.164 19.6-5.878c4.251-2.809 9.792-2.809 14.043 0 5.622 3.715 12.357 5.878 19.6 5.878s13.978-2.164 19.6-5.878c4.251-2.809 9.792-2.809 14.043 0 5.622 3.715 12.357 5.878 19.6 5.878s13.978-2.164 19.6-5.878c4.251-2.809 9.792-2.809 14.043 0 5.622 3.715 12.357 5.878 19.6 5.878 7.308 0 14.1-2.203 19.752-5.979 4.159-2.779 9.616-2.747 13.778.026 5.534 3.687 12.157 5.867 19.286 5.951 18.662.219 34.131-14.698 35.884-32.986.199-2.077-.237-4.166-1.272-5.978l-29.137-51.012c.002-.022-441.468-.022-441.468 0z" fill="#5d91b9" data-original="#5d91b9" style=""/><path d="m7.525 180.751c1.374 18.649 17.02 34.004 35.952 33.781 7.129-.084 13.752-2.264 19.286-5.951 4.163-2.773 9.62-2.805 13.778-.026 5.652 3.776 12.444 5.979 19.752 5.979 7.243 0 13.978-2.164 19.6-5.878 4.251-2.809 9.792-2.809 14.043 0 5.622 3.715 12.357 5.878 19.6 5.878s13.978-2.164 19.6-5.878c4.251-2.809 9.792-2.809 14.043 0 5.622 3.715 12.357 5.878 19.6 5.878s13.978-2.164 19.6-5.878c4.251-2.809 9.792-2.809 14.043 0 5.622 3.715 12.357 5.878 19.6 5.878s13.978-2.164 19.6-5.878c4.251-2.809 9.792-2.809 14.043 0 5.622 3.715 12.357 5.878 19.6 5.878s13.978-2.164 19.6-5.878c4.251-2.809 9.792-2.809 14.043 0 5.622 3.715 12.357 5.878 19.6 5.878s13.978-2.164 19.6-5.878c4.251-2.809 9.792-2.809 14.043 0 5.622 3.715 12.357 5.878 19.6 5.878 7.308 0 14.1-2.203 19.752-5.979 4.159-2.779 9.616-2.747 13.778.026 5.534 3.687 12.157 5.867 19.286 5.951 18.662.219 34.131-14.698 35.884-32.986.111-1.16.017-2.323-.262-3.44h-496.47c-.184.866-.26 1.755-.194 2.645z" fill="#407194" data-original="#407194" style=""/></g></g><g><path d="m162.582 350.816h28.157c4.142 0 7.5-3.358 7.5-7.5s-3.358-7.5-7.5-7.5h-28.157c-4.142 0-7.5 3.358-7.5 7.5s3.358 7.5 7.5 7.5z" fill="#000000" data-original="#000000" style=""/><path d="m162.582 389.618h28.157c4.142 0 7.5-3.358 7.5-7.5s-3.358-7.5-7.5-7.5h-28.157c-4.142 0-7.5 3.358-7.5 7.5s3.358 7.5 7.5 7.5z" fill="#000000" data-original="#000000" style=""/><path d="m351.63 381.925c-4.142 0-7.5 3.358-7.5 7.5v5.5c0 4.142 3.358 7.5 7.5 7.5s7.5-3.358 7.5-7.5v-5.5c0-4.142-3.358-7.5-7.5-7.5z" fill="#000000" data-original="#000000" style=""/><path d="m509.692 171.848-28.152-49.281v-79.087c0-6.893-5.608-12.5-12.501-12.5h-50.69c-4.142 0-7.5 3.358-7.5 7.5s3.358 7.5 7.5 7.5h48.191v71.075h-15.009v-45.568c0-5.79-4.71-10.5-10.5-10.5h-375.447c-5.79 0-10.5 4.71-10.5 10.5v45.564c-6.203.001-11.269.003-15.015.004v-71.075h343.28c4.142 0 7.5-3.358 7.5-7.5s-3.358-7.5-7.5-7.5h-345.781c-6.892 0-12.499 5.607-12.499 12.5v79.404l-23.399 49.811c-1.228 2.612-1.845 5.658-1.627 8.607 1.209 16.411 11.203 30.187 25.025 36.699v40.82c0 4.142 3.358 7.5 7.5 7.5s7.5-3.358 7.5-7.5v-36.904c.99.07 1.986.118 2.993.118.166 0 .335-.001.501-.003 8.349-.098 16.425-2.59 23.356-7.208 1.648-1.097 3.84-1.109 5.454-.032 7.091 4.739 15.362 7.244 23.919 7.244 8.478 0 16.685-2.462 23.735-7.121 1.754-1.159 4.02-1.159 5.774 0 7.05 4.659 15.257 7.121 23.734 7.121 8.478 0 16.685-2.462 23.735-7.121 1.753-1.159 4.02-1.16 5.774 0 7.05 4.659 15.257 7.121 23.735 7.121s16.685-2.462 23.734-7.121c1.753-1.159 4.021-1.16 5.774 0 7.05 4.659 15.258 7.121 23.735 7.121 8.478 0 16.685-2.462 23.735-7.121 1.754-1.159 4.021-1.159 5.774 0 7.05 4.659 15.257 7.121 23.734 7.121 8.478 0 16.685-2.462 23.735-7.121 1.753-1.159 4.02-1.16 5.774 0 7.05 4.659 15.257 7.121 23.735 7.121s16.685-2.462 23.734-7.121c1.754-1.159 4.021-1.16 5.774 0 7.05 4.659 15.258 7.121 23.735 7.121 8.557 0 16.828-2.505 23.918-7.243 1.615-1.079 3.808-1.066 5.454.031 6.391 4.259 13.761 6.684 21.416 7.116v244.08h-21.038v-213.079c0-6.342-5.16-11.501-11.501-11.501h-103.22c-6.342 0-11.501 5.16-11.501 11.501v213.079h-103.353l-7.176-37.893h14.469c5.791 0 10.501-4.711 10.501-10.501v-3.816h52.019c6.893 0 12.5-5.607 12.5-12.5v-147.37c0-6.893-5.607-12.5-12.5-12.5h-218.151c-6.893 0-12.5 5.607-12.5 12.5v147.37c0 6.893 5.607 12.5 12.5 12.5h52.013v3.816c0 5.79 4.711 10.501 10.501 10.501h14.469l-7.176 37.893h-97.327v-172.2c0-4.142-3.358-7.5-7.5-7.5s-7.5 3.358-7.5 7.5v174.7c0 6.893 5.607 12.5 12.5 12.5h431.471c6.893 0 12.5-5.607 12.5-12.5v-248.457c16.185-5.139 28.657-19.844 30.379-37.801.35-3.651-.42-7.252-2.226-10.414zm-175.413 180.814v-40.611h40.611v40.611zm55.611-40.611h40.611v40.611h-40.611zm40.611-15h-40.611v-40.611h40.611zm-55.611-40.611v40.611h-40.611v-40.611zm-40.611 111.222h96.222v98.358h-96.222zm-264.191 31.148v-142.37h213.151v142.37h-49.519v-91.004c0-5.79-4.711-10.501-10.501-10.501h-39.059v-6.372c0-4.142-3.358-7.5-7.5-7.5s-7.5 3.358-7.5 7.5v6.372h-39.059c-5.79 0-10.501 4.711-10.501 10.501v91.004zm64.513-86.504h84.119v100.822h-84.119zm25.237 115.822h33.645l7.176 37.893h-47.998zm-89.754-352.141h366.447v41.065s-237.445-.012-302.616-.011c-4.142 0-7.5 3.358-7.5 7.501 0 4.142 3.358 7.5 7.5 7.5 124.494-.005 305.685.001 335.769.013l22.023 38.551h-472.483l18.109-38.549c9.308-.003 31.652-.011 61.583-.013 4.142 0 7.5-3.358 7.5-7.5s-3.358-7.5-7.501-7.5c-10.658.001-20.342.002-28.831.004zm398.888 131.047c-.105 0-.211 0-.316-.002-5.442-.063-10.704-1.687-15.216-4.693-6.732-4.485-15.409-4.493-22.104-.021-4.616 3.085-10.005 4.715-15.585 4.715-5.528 0-10.875-1.603-15.465-4.636-6.776-4.478-15.535-4.478-22.313 0-4.589 3.033-9.937 4.636-15.465 4.636s-10.876-1.603-15.466-4.636c-6.776-4.479-15.535-4.478-22.313 0-4.589 3.033-9.937 4.636-15.465 4.636s-10.875-1.603-15.465-4.636c-6.777-4.479-15.536-4.479-22.313 0-9.358 6.184-21.572 6.184-30.931 0-6.777-4.478-15.536-4.478-22.313 0-9.358 6.184-21.572 6.184-30.931 0-6.776-4.479-15.535-4.478-22.313 0-9.358 6.184-21.572 6.184-30.931 0-6.777-4.479-15.536-4.479-22.313 0-4.589 3.033-9.937 4.636-15.465 4.636-5.58 0-10.969-1.63-15.586-4.716-6.695-4.472-15.37-4.464-22.104.022-4.512 3.006-9.773 4.629-15.215 4.692-12.777.177-24.107-9.067-27.458-21.427h480.191c-3.302 12.378-14.408 21.43-27.145 21.43z" fill="#000000" data-original="#000000" style=""/></g></g></g></svg>
