<svg width="24" height="24" viewBox="0 0 24 24" fill="none" xmlns="http://www.w3.org/2000/svg">
<path d="M5.00299 22H19.003C20.106 22 21.003 21.103 21.003 20V11C21.0031 10.8687 20.9773 10.7386 20.927 10.6173C20.8767 10.4959 20.803 10.3857 20.71 10.293L12.71 2.293C12.6172 2.20006 12.507 2.12632 12.3857 2.07601C12.2644 2.0257 12.1343 1.9998 12.003 1.9998C11.8717 1.9998 11.7416 2.0257 11.6203 2.07601C11.499 2.12632 11.3888 2.20006 11.296 2.293L3.29599 10.293C3.20299 10.3857 3.12923 10.4959 3.07895 10.6173C3.02867 10.7386 3.00286 10.8687 3.00299 11V20C3.00299 21.103 3.89999 22 5.00299 22ZM10.003 20V15H14.003V20H10.003ZM5.00299 11.414L12.003 4.414L19.003 11.414L19.004 20H16.003V15C16.003 13.897 15.106 13 14.003 13H10.003C8.89999 13 8.00299 13.897 8.00299 15V20H5.00299V11.414Z" fill="black"/>
</svg>
