<svg width="18" height="18" viewBox="0 0 18 18" fill="none" xmlns="http://www.w3.org/2000/svg">
<g clip-path="url(#clip0)">
<path d="M9 18C7.82673 18 6.63676 17.6148 5.71152 16.9394C4.57963 16.7627 3.46577 16.1936 2.63609 15.3639C1.80636 14.5343 1.23722 13.4205 1.06049 12.2886C0.385066 11.3631 0 10.1732 0 9C0 7.82684 0.385066 6.6369 1.06049 5.71141C1.23722 4.57945 1.8064 3.4657 2.63609 2.63602C3.46577 1.80633 4.57963 1.23722 5.71152 1.06056C6.63676 0.385172 7.82673 0 9 0C9.28937 0 9.52474 0.233227 9.52731 0.522598C9.53212 1.01152 9.80546 1.38034 10.1567 1.56336C10.4556 1.71907 10.5335 2.11177 10.3172 2.36978C9.70942 3.09484 10.169 4.20138 11.1101 4.28418C11.4458 4.31371 11.668 4.64664 11.5669 4.96775C11.283 5.87046 12.1309 6.71664 13.0322 6.43303C13.3529 6.33203 13.6864 6.55383 13.7159 6.89003C13.7984 7.83214 14.906 8.28977 15.6303 7.68277C15.8885 7.46634 16.2811 7.54467 16.4367 7.84318C16.639 8.23145 17.036 8.47266 17.4727 8.47266C17.7649 8.47266 18.0014 8.71056 18 9.00264C17.9928 10.4276 17.4647 11.5688 16.9395 12.2886C16.7628 13.4205 16.1936 14.5343 15.3639 15.3639C14.5342 16.1936 13.4204 16.7627 12.2885 16.9394C11.3632 17.6149 10.1733 18 9 18Z" fill="#4B1E0A"/>
<path d="M12.2885 16.9394C13.4204 16.7627 14.5342 16.1936 15.3639 15.3639C16.1936 14.5343 16.7628 13.4205 16.9395 12.2886C17.4647 11.5688 17.9928 10.4276 18 9.00264C18.0014 8.71056 17.7649 8.47266 17.4727 8.47266C17.036 8.47266 16.639 8.23145 16.4367 7.84318C16.2811 7.54467 15.8885 7.46634 15.6303 7.68277C14.906 8.28977 13.7984 7.83214 13.7159 6.89003C13.6864 6.55386 13.3529 6.33206 13.0322 6.43303C12.1309 6.71664 11.283 5.87046 11.5669 4.96775C11.668 4.64667 11.4457 4.31371 11.1101 4.28418C10.169 4.20138 9.70942 3.09487 10.3172 2.36978C10.5334 2.11177 10.4556 1.71907 10.1567 1.56336C9.80543 1.38034 9.53209 1.01152 9.52731 0.522598C9.52474 0.233227 9.28937 0 9 0V18C10.1733 18 11.3632 17.6149 12.2885 16.9394Z" fill="#1E000A"/>
<path d="M4.10838 6.54866C3.90243 6.34272 3.90243 6.00884 4.10838 5.80289L4.6732 5.23808C4.87911 5.03213 5.21302 5.03213 5.41897 5.23808C5.62491 5.44402 5.62491 5.7779 5.41897 5.98384L4.85415 6.54866C4.6482 6.75464 4.31425 6.75457 4.10838 6.54866Z" fill="#AF6432"/>
<path d="M13.1459 12.1972C12.9399 11.9912 12.9399 11.6573 13.1459 11.4514L13.7107 10.8865C13.9166 10.6806 14.2505 10.6806 14.4564 10.8865C14.6624 11.0925 14.6624 11.4264 14.4564 11.6323L13.8916 12.1971C13.6857 12.4031 13.3517 12.403 13.1459 12.1972Z" fill="#823200"/>
<path d="M9.75681 14.7389C9.55087 14.533 9.55087 14.1991 9.75681 13.9931L10.3216 13.4283C10.5275 13.2223 10.8615 13.2223 11.0674 13.4283C11.2734 13.6342 11.2734 13.9681 11.0674 14.174L10.5026 14.7389C10.2966 14.9449 9.96273 14.9448 9.75681 14.7389Z" fill="#823200"/>
<path d="M6.36772 10.5026C6.16177 10.2966 6.16177 9.96276 6.36772 9.75682L6.93254 9.192C7.13845 8.98605 7.47236 8.98605 7.67831 9.192C7.88425 9.39794 7.88425 9.73182 7.67831 9.93777L7.11349 10.5026C6.90754 10.7086 6.57359 10.7085 6.36772 10.5026Z" fill="#AF6432"/>
<path d="M6.93254 14.4565L6.36772 13.8916C6.16177 13.6857 6.16177 13.3518 6.36772 13.1459C6.57363 12.94 6.90754 12.94 7.11349 13.1459L7.67831 13.7107C7.88425 13.9167 7.88425 14.2506 7.67831 14.4565C7.47233 14.6625 7.13841 14.6624 6.93254 14.4565Z" fill="#AF6432"/>
<path d="M3.54353 11.0674L2.97868 10.5026C2.77273 10.2966 2.77273 9.96276 2.97868 9.75682C3.18459 9.55087 3.5185 9.55087 3.72445 9.75682L4.2893 10.3217C4.49525 10.5276 4.49525 10.8615 4.2893 11.0674C4.08336 11.2734 3.74941 11.2734 3.54353 11.0674Z" fill="#AF6432"/>
<path d="M10.3216 11.0674L9.75681 10.5026C9.55087 10.2966 9.55087 9.96275 9.75681 9.7568C9.96273 9.55093 10.2966 9.55086 10.5026 9.7568L11.0674 10.3217C11.2734 10.5276 11.2734 10.8615 11.0674 11.0674C10.8614 11.2734 10.5275 11.2733 10.3216 11.0674Z" fill="#823200"/>
<path d="M8.06227 7.1135L7.49742 6.54865C7.29147 6.3427 7.29147 6.00883 7.49742 5.80288C7.70333 5.59694 8.03724 5.59694 8.24319 5.80288L8.80804 6.36773C9.01399 6.57368 9.01399 6.90756 8.80804 7.1135C8.6021 7.31948 8.26818 7.31941 8.06227 7.1135Z" fill="#AF6432"/>
</g>
<defs>
<clipPath id="clip0">
<rect width="18" height="18" fill="white"/>
</clipPath>
</defs>
</svg>
