<svg width="24" height="24" viewBox="0 0 24 24" fill="none" xmlns="http://www.w3.org/2000/svg">
<path d="M15 1.125H0.75V15.375H9V23.25H23.25V9H15V1.125ZM6.9518 4.5L4.59811 11.2172H6.1875L6.57028 10.125H9V13.875H2.25V2.625H13.5V9H10.3749L8.79844 4.5H6.9518ZM8.65416 8.625H7.09584L7.875 6.40134L8.65416 8.625ZM21.75 10.5V21.75H10.5V10.5H21.75Z" fill="#676767"/>
<path d="M15.1644 16.503C14.8904 16.1306 14.7534 15.6824 14.7534 15.1586C14.7599 14.4706 15.0013 13.9278 15.4775 13.5302C15.8885 13.183 16.4038 13.0063 17.0235 13C17.6954 13 18.2107 13.1988 18.5695 13.5964C18.8565 13.8931 19 14.2781 19 14.7515V16.4272C19 16.7491 18.8761 17.011 18.6282 17.213C18.4325 17.3834 18.2042 17.4686 17.9432 17.4686H15.4384C15.2753 17.4686 15.1937 17.5475 15.1937 17.7053V20.5361L14.5871 21H14V17.5444C14 17.2604 14.0978 17.0174 14.2935 16.8154C14.4958 16.6071 14.7339 16.503 15.0078 16.503H15.1644ZM17.8063 14.7515C17.8063 14.4927 17.7182 14.2939 17.5421 14.155C17.3986 14.0288 17.2224 13.9657 17.0137 13.9657C16.6875 13.9657 16.4266 14.0824 16.2309 14.316C16.0352 14.5432 15.9374 14.8462 15.9374 15.2249C15.9374 15.6162 16.0385 15.9286 16.2407 16.1621C16.4494 16.3893 16.7332 16.503 17.092 16.503H17.5616C17.7247 16.503 17.8063 16.4241 17.8063 16.2663V14.7515Z" fill="#676767"/>
</svg>
