<svg width="20" height="20" viewBox="0 0 20 20" fill="none" xmlns="http://www.w3.org/2000/svg">
<g clip-path="url(#clip0)">
<path d="M12.8468 1.15859C12.7393 1.15891 12.6325 1.14768 12.5284 1.12555L10.7501 8.26317H14.4474V4.29376C15.3956 2.98853 14.4602 1.15859 12.8468 1.15859Z" fill="#DB2116"/>
<path d="M12.5284 1.12555C12.2839 1.07352 12.0551 0.96004 11.8716 0.786398C11.3742 0.315694 10.7081 0.0410461 10.0003 0.0410461C9.29241 0.0410461 8.62634 0.315694 8.12895 0.786398C7.8673 1.034 7.51391 1.15972 7.1537 1.15863C5.54031 1.15863 4.60482 2.98853 5.55302 4.29388V7.65956L9.9999 10.4156L13.3351 4.19251C13.965 3.03646 13.4867 1.46877 12.5284 1.12555Z" fill="#FF3A2F"/>
<path d="M12.4783 6.19863C12.4783 4.82985 11.3687 3.72024 9.99993 3.72028C8.63116 3.72028 7.52159 4.82989 7.52155 6.19863C7.52155 6.74494 7.69829 7.24997 7.99772 7.65963V9.03758L9.99989 10.4155L12.0022 7.65971C12.3016 7.25009 12.4783 6.7449 12.4783 6.19863Z" fill="#A41910"/>
<path d="M2.07574 4.84739C2.04282 4.94977 1.99912 5.04792 1.94592 5.14003L7.61055 8.85049L7.99747 7.65967L5.55204 4.29407C4.60371 2.98884 2.57429 3.31303 2.07574 4.84739Z" fill="#DB2116"/>
<path d="M1.94592 5.14003C1.82089 5.35653 1.64226 5.53903 1.42037 5.65991C0.818998 5.98748 0.351997 6.53613 0.133244 7.20933C-0.0854679 7.88253 -0.0300957 8.60088 0.263828 9.21939C0.418435 9.54474 0.428817 9.91967 0.316463 10.2619C-0.182128 11.7963 1.26914 13.2515 2.80362 12.7531L6.00459 13.7932L9.99988 10.4156L5.11207 5.32052C4.20721 4.36426 2.56845 4.33476 1.94592 5.14003Z" fill="#FF3A2F"/>
<path d="M6.75522 6.75539C5.45345 6.33241 4.05526 7.04485 3.63228 8.34662C3.20931 9.6484 3.92174 11.0466 5.22347 11.4696C5.74307 11.6384 6.27796 11.6264 6.76013 11.4682L8.07063 11.894L9.99985 10.4156L7.99768 7.65966C7.70066 7.24831 7.27478 6.92425 6.75522 6.75539Z" fill="#A41910"/>
<path d="M2.25556 16.2312C2.34272 16.2942 2.4226 16.366 2.49375 16.4451L7.77306 12.2043L6.76006 11.4684L2.80349 12.7541C1.26916 13.2526 0.950328 15.2829 2.25556 16.2312Z" fill="#DB2116"/>
<path d="M2.49376 16.4451C2.66101 16.631 2.7794 16.8572 2.8258 17.1056C2.95151 17.7788 3.32897 18.3925 3.90161 18.8085C4.47425 19.2246 5.17457 19.3939 5.85364 19.3055C6.21083 19.259 6.57066 19.365 6.86141 19.5776C8.16664 20.5259 9.99912 19.5954 9.99924 17.982L11.9775 15.2591L9.99988 10.4156L3.64378 13.4897C2.45473 14.0548 1.92028 15.6042 2.49376 16.4451Z" fill="#FF3A2F"/>
<path d="M5.51623 12.3704C4.71169 13.4778 4.95716 15.0277 6.06452 15.8322C7.17189 16.6367 8.72179 16.3912 9.52629 15.2839C9.84742 14.8419 10.0013 14.3295 9.99981 13.822L10.8098 12.7072L9.9999 10.4156L6.76018 11.4681C6.27716 11.6236 5.83732 11.9284 5.51623 12.3704Z" fill="#A41910"/>
<path d="M13.1378 19.578C13.2246 19.5145 13.3176 19.4608 13.4148 19.4175L11.013 13.0862L10 13.8221L10.0001 17.9823C10.0002 19.5957 11.8326 20.5263 13.1378 19.578Z" fill="#DB2116"/>
<path d="M13.4148 19.4175C13.6433 19.3159 13.895 19.2732 14.1456 19.3059C14.8247 19.3943 15.5249 19.225 16.0976 18.8089C16.6702 18.3929 17.0477 17.7791 17.1734 17.106C17.2396 16.7519 17.4516 16.4424 17.7436 16.2316C19.0489 15.2833 18.7302 13.253 17.1958 12.7543L15.2175 10.0314L9.99988 10.4155L10.9594 17.4105C11.1294 18.716 12.4379 19.7031 13.4148 19.4175Z" fill="#FF3A2F"/>
<path d="M10.4735 15.2838C11.278 16.3912 12.8279 16.6367 13.9353 15.8321C15.0426 15.0276 15.2881 13.4777 14.4836 12.3703C14.1624 11.9283 13.7226 11.6237 13.2395 11.4683L12.4296 10.3535L9.99985 10.4155L9.99977 13.822C9.99836 14.3294 10.1524 14.8419 10.4735 15.2838Z" fill="#A41910"/>
<path d="M19.6835 10.2626C19.65 10.1604 19.6277 10.0553 19.6166 9.94955L12.8528 10.2773L13.2398 11.4681L17.1964 12.7536C18.7308 13.2521 20.1821 11.797 19.6835 10.2626Z" fill="#DB2116"/>
<path d="M19.6165 9.94957C19.5905 9.70092 19.6277 9.44832 19.7361 9.22007C20.0301 8.6016 20.0855 7.88321 19.8667 7.21001C19.648 6.5368 19.1809 5.98819 18.5796 5.66059C18.2633 5.48827 18.0345 5.19101 17.9242 4.84807C17.4257 3.31366 15.3962 2.98939 14.4478 4.29459L9.99988 10.4156L16.949 11.6646C18.2431 11.9064 19.5862 10.967 19.6165 9.94957Z" fill="#FF3A2F"/>
<path d="M14.7763 11.4695C16.0781 11.0466 16.7905 9.64837 16.3675 8.3466C15.9445 7.04483 14.5463 6.33244 13.2445 6.75538C12.7249 6.92419 12.2993 7.24833 12.0022 7.65976L9.99988 10.4156L13.2396 11.4683C13.7217 11.6265 14.2568 11.6383 14.7763 11.4695Z" fill="#A41910"/>
<path d="M12.7176 9.53254C12.9214 9.21339 12.9218 8.78908 12.6857 8.46417C12.4497 8.13927 12.046 8.00852 11.6795 8.10377C11.6568 7.72574 11.4077 7.38224 11.0258 7.25814C10.6438 7.13403 10.2404 7.2655 9.99985 7.55802C9.75933 7.2655 9.35587 7.13403 8.97394 7.25814C8.592 7.38224 8.34287 7.72574 8.32021 8.10377C7.95369 8.00852 7.55003 8.13927 7.31398 8.46417C7.07792 8.78908 7.07828 9.21339 7.28215 9.53254C6.92963 9.67094 6.67993 10.014 6.67993 10.4156C6.67993 10.8172 6.92963 11.1602 7.28215 11.2986C7.07828 11.6177 7.07792 12.042 7.31398 12.367C7.55003 12.6919 7.95369 12.8226 8.32021 12.7274C8.34287 13.1054 8.59196 13.4489 8.97394 13.573C9.35587 13.6971 9.75933 13.5656 9.99985 13.2731C10.2404 13.5656 10.6438 13.6971 11.0258 13.573C11.4077 13.4489 11.6568 13.1054 11.6795 12.7274C12.046 12.8226 12.4497 12.6919 12.6857 12.367C12.9218 12.042 12.9214 11.6177 12.7176 11.2986C13.0701 11.1602 13.3198 10.8171 13.3198 10.4156C13.3198 10.014 13.0701 9.67094 12.7176 9.53254Z" fill="#FFD185"/>
<path d="M9.99989 12.2264C11 12.2264 11.8108 11.4157 11.8108 10.4156C11.8108 9.41545 11 8.60471 9.99989 8.60471C8.99978 8.60471 8.18903 9.41545 8.18903 10.4156C8.18903 11.4157 8.99978 12.2264 9.99989 12.2264Z" fill="#FFBA48"/>
<path d="M9.99986 11.0192C10.3332 11.0192 10.6035 10.749 10.6035 10.4156C10.6035 10.0822 10.3332 9.81198 9.99986 9.81198C9.66649 9.81198 9.39624 10.0822 9.39624 10.4156C9.39624 10.749 9.66649 11.0192 9.99986 11.0192Z" fill="#FF7A3C"/>
</g>
<defs>
<clipPath id="clip0">
<rect width="20" height="20" fill="white"/>
</clipPath>
</defs>
</svg>
