<svg width="54" height="69" viewBox="0 0 54 69" fill="none" xmlns="http://www.w3.org/2000/svg">
<path d="M39.5149 61.4815C62.399 51.8039 43.9863 42.3154 49.1928 31.9543C56.4145 17.5782 53.9522 5.78927 40.0661 3.55596C26.1862 1.32876 5.47046 11.7569 1.36039 21.0319C-4.32388 33.852 9.58666 38.459 11.0567 43.1391C12.5697 47.9536 -1.22448 78.7134 39.5149 61.4815Z" fill="#6A097D"/>
<path d="M35.1107 21.0319C35.1107 21.0319 39.8272 20.739 38.6757 15.7598C38.6757 15.7598 40.8195 14.7774 40.55 10.9393C40.2866 7.10118 36.4032 6.87541 36.4032 6.87541C36.4032 6.87541 37.3465 4.52007 35.2945 3.15324C33.2425 1.78641 32.2319 4.02581 32.2319 4.02581C32.2319 4.02581 31.5213 -0.398082 26.4986 0.0290531C21.4758 0.450086 21.2982 4.56278 21.2982 4.56278C21.2982 4.56278 17.9109 4.25769 16.7655 7.38797C15.6201 10.5183 17.5128 11.6288 17.5128 11.6288C17.5128 11.6288 16.0305 12.4282 16.3367 14.8811C16.643 17.328 19.0747 18.2372 21.5555 18.4141C24.0423 18.585 35.1107 21.0319 35.1107 21.0319Z" fill="#252144"/>
<path d="M49.64 36.4819C47.6554 29.9529 38.0816 25.828 38.0816 25.828L32.1339 28.8606L30.915 29.3976L30.1432 28.7813L29.1019 27.506C27.7604 27.8843 24.0424 29.3549 20.7898 30.1176C17.5373 30.8803 13.415 29.8552 13.415 29.8552C14.1133 26.5419 15.2648 21.3308 15.2648 21.3308C14.0091 21.0563 10.7505 19.4453 10.7505 19.4453C10.7505 19.4453 9.04765 22.1607 7.86547 24.5343C6.68329 26.908 2.45071 33.6933 5.18259 37.5314C7.91447 41.3696 20.7163 41.1194 20.7163 41.1194C18.793 46.2389 18.1805 62.9521 18.1866 66.6742C20.7898 72.2758 36.2501 66.2654 45.0828 64.1786C44.8623 60.5723 44.4029 57.2163 44.6969 54.0555C45.1318 49.3631 51.6246 43.011 49.64 36.4819Z" fill="#F94B4B"/>
<path d="M38.2898 26.127C38.2898 26.127 35.1965 22.2034 34.1552 18.4752C33.1078 14.753 28.7282 25.1141 28.7282 25.1141L29.108 27.506L30.3208 29.6234L34.4737 29.0193L38.2898 26.127Z" fill="#F7AFA4"/>
<path d="M34.1552 18.4752C33.1078 14.753 28.7282 25.1141 28.7282 25.1141L29.108 27.506L29.3714 28.1345C30.235 28.2444 31.0068 28.0918 31.6132 27.7501C33.169 26.8592 34.4799 22.655 34.8596 20.4766C34.5962 19.8603 34.3574 19.1891 34.1552 18.4752Z" fill="#E98786"/>
<path d="M40.746 38.4224L40.4582 38.404C40.6787 35.4141 39.4965 32.9489 38.4674 31.4112C37.3526 29.7393 36.0357 28.7142 36.0234 28.702L36.342 28.5372C36.391 28.5799 37.567 29.544 38.7063 31.2526C39.766 32.8269 40.9727 35.347 40.746 38.4224Z" fill="white"/>
<path d="M42.1365 36.6467C42.1365 36.6467 36.1459 41.2963 34.3267 47.3494L19.7363 45.7202C19.7363 45.7202 19.2707 49.5339 19.2217 51.4194C19.2217 51.4194 30.5964 55.7335 34.829 56.5023C39.0616 57.2651 39.913 56.8745 43.4228 51.4011C46.9326 45.9277 47.3675 43.7554 47.8636 41.5221" fill="#E54545"/>
<path d="M42.4979 37.0921C42.4979 37.0921 37.2607 44.1764 35.4231 50.3089L20.5509 47.4715C20.5509 47.4715 19.92 49.5705 19.2217 51.4133C19.2217 51.4133 31.5336 58.7722 35.0311 59.4007C39.325 60.1757 40.1825 59.779 43.7352 54.2324C44.311 53.3354 44.8439 52.4628 45.3339 51.6269C46.4732 48.7102 48.3108 44.7256 49.1928 41.1865L42.4979 37.0921Z" fill="#D13F3F"/>
<path d="M20.2937 12.8553C20.2937 12.8553 19.577 17.2304 22.4375 22.1668C25.298 27.1033 28.8936 27.9514 30.7985 26.8592C32.7035 25.767 34.2471 19.6894 34.1552 18.4691C34.0633 17.2548 32.0359 11.6532 32.0359 11.6532C32.0359 11.6532 26.4067 7.05845 25.1633 8.24223C23.9198 9.4199 20.2937 12.8553 20.2937 12.8553Z" fill="#F7AFA4"/>
<path d="M19.2095 13.9292C19.2095 13.9292 20.5632 15.5523 23.8708 14.2709C27.4296 12.8919 26.8171 9.81652 26.8171 9.81652C26.8171 9.81652 27.8339 11.7081 30.5474 12.0925C30.5474 12.0925 31.3131 15.7232 32.5994 16.4859C33.8857 17.2487 31.7418 13.8133 34.5411 13.5021C37.3465 13.1909 34.4921 5.88688 34.4921 5.88688L27.8278 3.45831L22.8847 5.28279C22.8847 5.28279 18.4622 7.47338 18.2172 9.1392C17.9783 10.805 19.2095 13.9292 19.2095 13.9292Z" fill="#252144"/>
<path d="M11.8285 17.3951C11.8285 17.3951 12.6126 12.0864 15.8038 9.65177C18.2295 7.80289 20.6734 8.20561 22.4008 9.99348C23.6565 11.2871 21.8863 11.342 20.8817 10.9637C20.3121 10.7501 18.7195 10.1704 18.303 10.805C18.0089 11.2566 19.9752 11.6227 20.2814 12.8614C20.5877 14.094 20.2447 14.2099 19.969 15.4486C19.7547 16.3944 19.283 16.5225 18.5051 16.7361C17.7272 16.9497 17.4577 16.8703 17.4577 16.8703C17.4577 16.8703 17.3719 16.5958 16.1224 18.6887C15.4486 19.8481 11.8285 17.3951 11.8285 17.3951Z" fill="#F7AFA4"/>
<path d="M17.3474 51.1082L17.6965 51.0167C18.0886 50.913 18.3152 50.5042 18.1927 50.1136L14.8912 39.8502C14.7748 39.4841 14.4501 39.2278 14.0704 39.1912L9.15788 38.7763C8.99249 38.7641 8.82711 38.8007 8.68623 38.8922L8.03082 39.3132L17.3474 51.1082Z" fill="#3D3B66"/>
<path d="M8.15948 39.3011L13.7029 39.9967C13.905 40.0211 14.0704 40.1614 14.1316 40.3567L17.3535 51.1083L12.2022 50.2662C11.853 50.2113 11.5651 49.9672 11.4488 49.6377L7.89609 39.6367C7.82259 39.4597 7.9696 39.2827 8.15948 39.3011Z" fill="#252144"/>
<path d="M20.3488 46.7148C20.3488 46.7148 18.744 45.3541 18.2478 44.3473C17.7517 43.3405 15.6752 42.9072 14.934 42.4862C14.1929 42.0713 13.0903 42.1506 14.1684 44.0849C14.1684 44.0849 11.4978 43.4076 10.3217 42.834C9.14564 42.2604 8.41673 41.6564 8.16559 41.8333C7.90833 42.0103 8.23297 43.7127 9.47641 44.4632C9.47641 44.4632 9.54991 45.6531 10.5483 46.4525C10.5483 46.4525 11.0935 47.9047 12.6309 48.5027C14.1684 49.1007 19.5586 50.9069 19.5586 50.9069L20.3488 46.7148Z" fill="#F7AFA4"/>
<path d="M42.3141 35.5117C42.3141 35.5117 37.1444 42.5045 35.3313 48.5577L22.5049 46.9834C22.5049 46.9834 20.8266 51.1937 20.796 51.5537C20.796 51.5537 30.7128 56.7708 34.9454 57.5336C39.178 58.2963 40.0294 57.9058 43.5392 52.4324C47.049 46.959 48.9601 42.4496 49.4562 40.2224" fill="#F94B4B"/>
<path d="M34.143 18.9755C35.5232 18.9755 36.6421 17.8609 36.6421 16.486C36.6421 15.111 35.5232 13.9964 34.143 13.9964C32.7628 13.9964 31.6439 15.111 31.6439 16.486C31.6439 17.8609 32.7628 18.9755 34.143 18.9755Z" fill="#F7AFA4"/>
<path d="M29.108 27.506C29.108 27.506 29.5245 28.4762 32.1645 28.1833C34.8045 27.8904 37.6773 25.2483 37.6773 25.2483C37.6773 25.2483 38.3817 25.6754 38.8594 26.1941C38.8594 26.1941 35.368 30.5997 31.3621 30.4044C27.3561 30.2031 28.379 27.744 28.379 27.744L29.108 27.506Z" fill="white"/>
<path d="M19.8098 46.2206C19.8098 46.2206 22.0271 46.8247 22.4988 46.9773C22.4988 46.9773 21.8495 50.3028 20.7898 51.5476C20.7898 51.5476 18.4928 50.7421 18.2172 50.4492C18.2172 50.4553 19.4668 49.2655 19.8098 46.2206Z" fill="white"/>
<path d="M16.1407 18.6826C16.1407 18.6826 15.4424 20.861 15.2709 21.3309C15.2709 21.3309 11.9571 20.5498 10.7566 19.4454C10.7566 19.4454 11.657 17.1876 11.9633 16.9314C11.9571 16.9314 13.1026 18.2189 16.1407 18.6826Z" fill="white"/>
<path d="M20.6489 41.1011C20.6428 41.1011 20.6367 41.1011 20.6306 41.1011C20.5509 41.0889 20.4958 41.0157 20.5081 40.9364C20.5142 40.912 20.8511 38.581 22.0271 35.9023C22.7193 34.328 23.5707 32.9367 24.5446 31.7713C25.7636 30.3129 27.1969 29.2024 28.7895 28.4823C28.863 28.4518 28.9487 28.4823 28.9793 28.5555C29.01 28.6288 28.9793 28.7142 28.9058 28.7447C25.3838 30.3434 23.3686 33.5774 22.2966 36.0121C21.1328 38.6603 20.7959 40.9547 20.7959 40.9791C20.7776 41.0523 20.7163 41.1011 20.6489 41.1011Z" fill="white"/>
<path d="M11.9265 56.3498C12.3054 56.3498 12.6126 56.0438 12.6126 55.6664C12.6126 55.2889 12.3054 54.983 11.9265 54.983C11.5477 54.983 11.2405 55.2889 11.2405 55.6664C11.2405 56.0438 11.5477 56.3498 11.9265 56.3498Z" fill="white"/>
</svg>
