<svg width="20" height="20" viewBox="0 0 20 20" fill="none" xmlns="http://www.w3.org/2000/svg">
<path d="M9.83335 9.08333C7.94169 8.59167 7.33335 8.08333 7.33335 7.29167C7.33335 6.38333 8.17502 5.75 9.58335 5.75C10.7667 5.75 11.3584 6.2 11.575 6.91667C11.675 7.25 11.95 7.5 12.3 7.5H12.55C13.1 7.5 13.4917 6.95833 13.3 6.44167C12.95 5.45833 12.1334 4.64167 10.8334 4.325V3.75C10.8334 3.05833 10.275 2.5 9.58335 2.5C8.89169 2.5 8.33335 3.05833 8.33335 3.75V4.3C6.71669 4.65 5.41669 5.7 5.41669 7.30833C5.41669 9.23333 7.00835 10.1917 9.33335 10.75C11.4167 11.25 11.8334 11.9833 11.8334 12.7583C11.8334 13.3333 11.425 14.25 9.58335 14.25C8.20835 14.25 7.50002 13.7583 7.22502 13.0583C7.10002 12.7333 6.81669 12.5 6.47502 12.5H6.24169C5.68335 12.5 5.29169 13.0667 5.50002 13.5833C5.97502 14.7417 7.08335 15.425 8.33335 15.6917V16.25C8.33335 16.9417 8.89169 17.5 9.58335 17.5C10.275 17.5 10.8334 16.9417 10.8334 16.25V15.7083C12.4584 15.4 13.75 14.4583 13.75 12.75C13.75 10.3833 11.725 9.575 9.83335 9.08333Z" fill="#5E5E5E"/>
</svg>
