<svg width="24" height="24" viewBox="0 0 24 24" fill="none" xmlns="http://www.w3.org/2000/svg">
<path d="M10.4217 20.2609H6.42174C5.12562 20.2561 4.07474 19.2091 4.06522 17.913V9.95652C4.06776 9.52264 4.26191 9.11206 4.59565 8.83478L5.3 8.31304C5.55714 8.03907 5.58329 7.62102 5.36229 7.31715C5.14129 7.01328 4.73552 6.90935 4.39565 7.06957L3.67391 7.6087C2.94588 8.17202 2.51384 9.0361 2.5 9.95652V17.9217C2.50478 20.0857 4.25781 21.8387 6.42174 21.8435H10.4217C10.854 21.8435 11.2043 21.4931 11.2043 21.0609C11.2043 20.6286 10.854 20.2783 10.4217 20.2783V20.2609Z" fill="#200E32"/>
<path d="M21.2913 9.93913C21.2822 9.02547 20.8642 8.16395 20.1522 7.5913L14.1435 2.8C12.8231 1.73864 10.9422 1.73864 9.62176 2.8L7.71742 4.18261C7.35963 4.43954 7.27787 4.93787 7.53481 5.29565C7.79174 5.65344 8.29007 5.73519 8.64785 5.47826L10.5783 4.03478C11.336 3.41099 12.4293 3.41099 13.187 4.03478L19.1957 8.82609C19.5415 9.10022 19.7458 9.51526 19.7522 9.95652V17.9217C19.7522 19.2184 18.701 20.2696 17.4044 20.2696H15.6218C15.4393 20.2696 15.2913 20.1216 15.2913 19.9391V16.3478C15.2913 15.2034 14.3662 14.2744 13.2218 14.2696H10.6131C10.0619 14.2696 9.53326 14.4885 9.14352 14.8783C8.75377 15.268 8.53481 15.7966 8.53481 16.3478V17.7217C8.53481 18.154 8.88519 18.5043 9.31742 18.5043C9.74964 18.5043 10.1 18.154 10.1 17.7217V16.3478C10.0977 16.2126 10.1498 16.082 10.2446 15.9856C10.3395 15.8891 10.4691 15.8348 10.6044 15.8348H13.2131C13.4916 15.8348 13.7174 16.0606 13.7174 16.3391V19.9391C13.7222 20.9875 14.5734 21.8348 15.6218 21.8348H17.3609C19.5268 21.8348 21.2826 20.079 21.2826 17.913L21.2913 9.93913Z" fill="#200E32"/>
</svg>
