<svg width="16" height="16" viewBox="0 0 16 16" fill="none" xmlns="http://www.w3.org/2000/svg">
<path d="M4 1.33334L2 4.00001V13.3333C2 13.687 2.14048 14.0261 2.39052 14.2762C2.64057 14.5262 2.97971 14.6667 3.33333 14.6667H12.6667C13.0203 14.6667 13.3594 14.5262 13.6095 14.2762C13.8595 14.0261 14 13.687 14 13.3333V4.00001L12 1.33334H4Z" stroke="#7C7C7C" stroke-linecap="round" stroke-linejoin="round"/>
<path d="M2 4H14" stroke="#7C7C7C" stroke-linecap="round" stroke-linejoin="round"/>
<path d="M10.6666 6.66666C10.6666 7.3739 10.3857 8.05218 9.8856 8.55227C9.3855 9.05237 8.70722 9.33332 7.99998 9.33332C7.29274 9.33332 6.61446 9.05237 6.11436 8.55227C5.61426 8.05218 5.33331 7.3739 5.33331 6.66666" stroke="#7C7C7C" stroke-linecap="round" stroke-linejoin="round"/>
</svg>
