<svg width="870" height="292" viewBox="0 0 870 292" fill="none" xmlns="http://www.w3.org/2000/svg">
<path d="M220.354 187.823C220.207 185.52 220.061 183.722 219.914 182.344C219.482 179.029 218.856 175.721 218.057 172.505C217.252 169.29 216.313 166.367 215.195 163.658C214.023 161.168 212.765 158.805 211.461 156.635C210.109 154.385 208.585 152.254 207.008 150.384C205.317 148.234 203.48 146.323 201.556 144.705C199.692 143.141 197.702 141.676 195.685 140.378C191.598 137.655 187.005 135.585 182.066 134.24C177.293 132.896 172.374 132.217 167.455 132.217C159.567 132.217 152.365 133.668 146.135 136.484C139.658 139.193 134.007 143.167 129.407 148.214C124.754 153.013 121.04 158.925 118.318 165.888C115.815 172.951 114.543 180.341 114.543 187.85C114.543 195.499 115.815 202.961 118.311 209.998C120.714 216.908 124.375 222.933 129.121 227.819C133.787 232.945 139.445 236.919 145.829 239.595C152.152 242.451 159.434 243.903 167.455 243.903C177.307 243.903 186.686 241.26 195.425 235.987C199.606 233.298 203.526 229.909 207.081 225.908C207.5 225.436 207.906 224.956 208.306 224.47L207.919 240.973H220.513L220.573 237.259C220.713 228.811 220.78 220.909 220.78 213.773V204.466C220.78 201.297 220.746 198.301 220.673 195.479C220.6 192.65 220.493 190.1 220.354 187.823ZM207.846 196.91C207.327 199.806 206.548 202.635 205.536 205.298C203.48 210.557 200.557 215.304 196.803 219.451C195.059 221.441 193.102 223.212 190.986 224.71C188.762 226.275 186.326 227.726 183.843 228.971C178.931 231.241 173.413 232.386 167.442 232.386C161.098 232.386 155.474 231.181 150.728 228.811C148.158 227.533 145.769 226.088 143.632 224.537C141.588 223.053 139.678 221.228 137.834 218.992C134.286 215.064 131.517 210.357 129.64 205.112C127.816 199.38 126.891 193.575 126.891 187.856C126.891 182.138 127.816 176.333 129.6 170.728C131.517 165.362 134.286 160.656 137.887 156.661C141.156 152.893 145.462 149.685 150.628 147.162C155.54 144.898 161.198 143.747 167.449 143.747C173.419 143.747 178.937 144.898 183.743 147.108C186.353 148.413 188.789 149.864 190.992 151.416C193.096 152.9 195.059 154.671 196.857 156.721C200.571 160.822 203.493 165.569 205.536 170.794C206.562 173.484 207.34 176.313 207.86 179.209C208.379 182.125 208.638 185.1 208.638 188.063C208.625 191.019 208.365 194.001 207.846 196.91Z" fill="white"/>
<path d="M341.505 148.293C336.839 143.167 331.195 139.187 324.838 136.524C318.528 133.661 311.332 132.217 303.464 132.217C293.333 132.217 283.954 134.873 275.6 140.105C271.28 142.795 267.28 146.196 263.712 150.217C263.2 150.796 262.7 151.389 262.208 151.995L262.394 71.7835H249.813V151.782C249.813 158.718 249.887 165.149 250.026 170.901C250.166 176.679 250.266 181.552 250.339 185.513C250.433 190.892 250.705 192.923 250.918 193.948C251.371 197.236 251.977 200.478 252.716 203.581C253.508 206.922 254.566 209.931 255.818 212.461C256.962 214.898 258.161 217.234 259.392 219.411C260.69 221.708 262.194 223.871 263.779 225.735C265.456 227.872 267.287 229.789 269.224 231.42C271.074 232.978 273.064 234.449 275.141 235.787C277.251 237.146 279.421 238.324 281.578 239.296C283.715 240.261 286.084 241.126 288.647 241.885C293.28 243.237 298.265 243.922 303.471 243.922C311.199 243.922 318.321 242.471 324.552 239.649C331.308 236.793 336.966 232.798 341.233 227.919C345.872 223.119 349.58 217.214 352.275 210.311C354.931 203.221 356.276 195.812 356.276 188.283C356.276 180.021 354.918 172.505 352.302 166.134C349.892 159.204 346.238 153.18 341.505 148.293ZM341.006 205.371C339.083 210.644 336.36 215.397 332.985 219.404C329.557 223.219 325.231 226.448 320.232 228.957C315.326 231.227 309.688 232.372 303.457 232.372C297.493 232.372 291.909 231.221 286.996 229.004C281.891 226.448 277.564 223.219 274.129 219.391C270.422 215.297 267.506 210.55 265.449 205.271C263.273 199.753 262.168 193.961 262.168 188.05C262.168 182.138 263.273 176.346 265.456 170.808C267.506 165.549 270.422 160.802 274.136 156.695C277.551 152.893 281.877 149.658 286.856 147.155C291.902 144.878 297.487 143.727 303.451 143.727C309.774 143.727 315.386 144.932 320.118 147.295C325.211 149.851 329.524 153.14 332.899 157.014C336.353 161.122 339.076 165.881 340.993 171.114C342.923 176.539 343.902 182.304 343.902 188.249C343.902 194.194 342.93 199.972 341.006 205.371Z" fill="white"/>
<path d="M487.78 187.823C487.633 185.52 487.487 183.722 487.34 182.344C486.908 179.029 486.282 175.721 485.483 172.505C484.678 169.29 483.739 166.367 482.621 163.658C481.449 161.168 480.191 158.805 478.887 156.635C477.535 154.385 476.011 152.254 474.434 150.384C472.743 148.234 470.906 146.323 468.982 144.705C467.118 143.141 465.128 141.676 463.111 140.378C459.024 137.655 454.431 135.585 449.492 134.24C444.719 132.896 439.8 132.217 434.881 132.217C426.993 132.217 419.791 133.668 413.561 136.484C407.084 139.193 401.433 143.167 396.833 148.214C392.18 153.013 388.466 158.925 385.744 165.888C383.241 172.951 381.969 180.341 381.969 187.85C381.969 195.499 383.241 202.961 385.737 209.998C388.14 216.908 391.801 222.933 396.547 227.819C401.213 232.945 406.871 236.919 413.255 239.595C419.578 242.451 426.86 243.903 434.881 243.903C444.733 243.903 454.112 241.26 462.851 235.987C467.032 233.298 470.952 229.909 474.507 225.908C474.926 225.436 475.332 224.956 475.732 224.47L475.346 240.973H487.939L487.999 237.259C488.139 228.811 488.206 220.909 488.206 213.773V204.466C488.206 201.297 488.172 198.301 488.099 195.479C488.026 192.65 487.919 190.1 487.78 187.823ZM475.272 196.91C474.753 199.806 473.974 202.635 472.962 205.298C470.906 210.557 467.983 215.304 464.229 219.451C462.485 221.441 460.528 223.212 458.412 224.71C456.188 226.275 453.752 227.726 451.269 228.971C446.357 231.241 440.839 232.386 434.868 232.386C428.524 232.386 422.9 231.181 418.154 228.811C415.584 227.533 413.195 226.088 411.058 224.537C409.014 223.053 407.104 221.228 405.26 218.992C401.712 215.064 398.943 210.357 397.066 205.112C395.242 199.38 394.317 193.575 394.317 187.856C394.317 182.138 395.242 176.333 397.026 170.728C398.943 165.362 401.712 160.656 405.313 156.661C408.582 152.893 412.888 149.685 418.054 147.162C422.966 144.898 428.624 143.747 434.875 143.747C440.845 143.747 446.364 144.898 451.169 147.108C453.779 148.413 456.215 149.864 458.418 151.416C460.522 152.9 462.485 154.671 464.283 156.721C467.997 160.822 470.919 165.569 472.962 170.794C473.988 173.484 474.766 176.313 475.286 179.209C475.805 182.125 476.064 185.1 476.064 188.063C476.051 191.019 475.791 194.001 475.272 196.91Z" fill="white"/>
<path d="M617.946 203.274C617.873 198.082 617.767 193.628 617.633 189.9C617.487 186.092 617.347 183.576 617.187 182.131C616.761 178.843 616.176 175.561 615.45 172.365C614.691 169.043 613.686 166.041 612.468 163.445C611.31 160.982 610.105 158.645 608.894 156.502C607.602 154.218 606.104 152.055 604.374 150.004C600.972 146.15 597.218 142.841 593.111 140.098C588.804 137.422 584.278 135.379 579.592 134.014C574.7 132.676 569.727 131.997 564.828 131.997C557.087 131.997 549.964 133.448 543.801 136.251C537.47 138.82 531.759 142.788 526.74 148.127C524.55 150.617 522.507 153.293 520.683 156.082C518.779 158.985 517.202 162.22 516.07 165.509C513.388 172.072 512.023 179.515 512.023 187.643C512.023 195.892 513.308 203.381 515.837 209.925C518.5 216.748 522.107 222.693 526.567 227.606C531.067 232.579 536.758 236.613 543.581 239.649C546.816 240.973 550.224 242.025 553.719 242.777C557.233 243.523 560.974 243.902 564.835 243.902C574.833 243.902 584.218 241.173 592.698 235.807C597.032 233.111 601.006 229.696 604.507 225.662C605.033 225.056 605.545 224.437 606.051 223.798L605.665 292H618.252V239.083C618.252 232.798 618.212 226.541 618.146 220.323C618.079 214.119 618.013 208.433 617.946 203.274ZM602.816 205.092C600.766 210.351 597.851 215.097 594.103 219.245C592.366 221.235 590.415 222.999 588.299 224.497C586.082 226.061 583.646 227.513 581.176 228.751C576.277 231.021 570.772 232.166 564.821 232.166C558.498 232.166 552.887 230.961 548.041 228.538C543.388 226.401 539.095 223.179 535.4 219.118C531.812 214.751 529.083 209.938 527.279 204.772C525.349 199.353 524.371 193.588 524.371 187.637C524.371 181.685 525.349 175.92 527.273 170.528C529.196 165.262 531.919 160.509 535.294 156.495C538.828 152.574 543.122 149.425 548.154 147.095C552.893 144.725 558.498 143.52 564.821 143.52C570.865 143.52 576.337 144.725 581.17 147.142C586.382 149.565 590.742 152.707 594.143 156.495C597.851 160.596 600.766 165.342 602.81 170.595C604.853 175.854 605.891 181.652 605.891 187.836C605.898 194.034 604.86 199.839 602.816 205.092Z" fill="white"/>
<path d="M755.209 187.823C755.063 185.52 754.916 183.716 754.77 182.344C754.337 179.029 753.711 175.721 752.913 172.505C752.101 169.27 751.162 166.347 750.05 163.658C748.872 161.162 747.614 158.798 746.323 156.635C744.978 154.398 743.454 152.261 741.87 150.384C740.179 148.234 738.342 146.33 736.418 144.705C734.554 143.147 732.564 141.676 730.547 140.378C726.46 137.655 721.867 135.585 716.928 134.24C712.155 132.896 707.236 132.217 702.317 132.217C694.429 132.217 687.221 133.668 680.997 136.484C674.52 139.193 668.869 143.167 664.269 148.214C659.616 153.013 655.902 158.925 653.18 165.888C650.677 172.951 649.406 180.341 649.406 187.85C649.406 195.499 650.677 202.961 653.173 209.998C655.576 216.908 659.237 222.933 663.983 227.819C668.649 232.945 674.307 236.919 680.691 239.595C687.014 242.451 694.296 243.903 702.317 243.903C712.169 243.903 721.548 241.26 730.288 235.987C734.461 233.304 738.388 229.909 741.943 225.908C742.362 225.436 742.768 224.956 743.168 224.47L742.782 240.973H755.382L755.442 237.259C755.582 228.811 755.648 220.909 755.648 213.773V204.466C755.648 201.297 755.615 198.301 755.542 195.479C755.455 192.65 755.349 190.1 755.209 187.823ZM742.702 196.91C742.189 199.799 741.41 202.629 740.392 205.298C738.335 210.557 735.413 215.304 731.659 219.451C729.915 221.441 727.951 223.212 725.841 224.71C723.611 226.281 721.175 227.726 718.699 228.971C713.786 231.241 708.268 232.386 702.297 232.386C695.954 232.386 690.329 231.181 685.583 228.811C683.014 227.533 680.624 226.088 678.487 224.537C676.444 223.053 674.533 221.228 672.69 218.992C669.142 215.064 666.373 210.357 664.496 205.112C662.672 199.38 661.747 193.575 661.747 187.856C661.747 182.138 662.672 176.333 664.456 170.728C666.373 165.362 669.142 160.656 672.743 156.661C676.011 152.893 680.318 149.685 685.483 147.162C690.396 144.898 696.054 143.747 702.304 143.747C708.275 143.747 713.793 144.898 718.599 147.108C721.202 148.413 723.638 149.858 725.848 151.416C727.958 152.9 729.915 154.671 731.712 156.721C735.426 160.822 738.348 165.569 740.392 170.794C741.417 173.49 742.196 176.32 742.708 179.209C743.228 182.131 743.487 185.114 743.487 188.063C743.481 191.012 743.221 193.988 742.702 196.91Z" fill="white"/>
<path d="M867.995 161.561C866.498 156.029 864.361 151.156 861.619 147.042C858.637 142.655 854.536 139.013 849.437 136.231C844.572 133.561 838.188 132.21 830.48 132.21C825.787 132.21 821.247 132.902 817.027 134.26C812.594 135.631 808.481 137.728 804.886 140.431C801.378 142.921 798.123 146.056 795.161 149.838V71.7766H782.793V240.973H795.154V188.056C795.154 181.126 796.14 174.709 798.077 169.017C800 163.498 802.583 158.845 805.745 155.177C807.242 153.426 808.953 151.815 810.824 150.384C812.701 148.952 814.718 147.721 816.868 146.709C820.935 144.738 825.514 143.74 830.487 143.74C835.758 143.74 840.238 144.825 843.706 146.902C847.141 149.112 849.93 151.835 851.934 154.884C854.05 158.379 855.508 162.173 856.26 166.167C857.052 170.381 857.452 174.442 857.452 178.23V240.973H869.813V177.811C869.799 172.705 869.207 167.312 867.995 161.561Z" fill="white"/>
<path d="M403.503 116.825H409.141H410.266H437.81H438.935H516.575C520.549 116.825 523.931 115.321 526.726 112.312C529.629 109.309 531.073 105.708 531.073 101.52V70.1056C530.853 60.2265 527.692 52.704 521.568 47.5514C516.303 43.0379 509.273 40.7878 500.467 40.7878C488.871 40.7878 479.686 44.0631 472.923 50.6137C466.053 57.3773 462.619 66.5108 462.619 78.0009C462.619 82.4079 463.371 86.8615 464.875 91.375C466.805 96.9603 469.814 101.634 473.895 105.388H438.942H437.817H410.273H409.148H407.051C405.866 105.388 404.794 104.849 403.829 103.777C402.751 102.705 402.218 101.201 402.218 99.2637V38.3713H395.456L388.526 43.8501C382.728 41.2738 376.984 39.9823 371.293 39.9823C361.308 39.9823 352.875 43.4706 346.005 50.4539C338.27 58.1895 334.41 67.9088 334.41 79.612C334.41 89.5976 337.092 98.1919 342.464 105.388C349.014 114.196 357.927 118.596 369.203 118.596C377.257 118.596 384.772 116.126 391.755 111.187C394.643 114.948 398.557 116.825 403.503 116.825ZM480.817 61.731C485.004 55.5066 491.554 52.3845 500.467 52.3845C505.299 52.3845 509.114 53.6759 511.903 56.2522C515.444 59.4743 517.221 64.0943 517.221 70.1056V99.2637C517.221 103.344 515.231 105.388 511.264 105.388H502.564C494.616 105.388 488.226 102.652 483.393 97.1734C478.774 92.0208 476.411 85.7897 476.304 78.4869C476.311 71.6168 477.815 66.0248 480.817 61.731ZM388.52 102.326C382.183 105.441 376.119 106.999 370.314 106.999C363.551 106.999 358.18 104.742 354.206 100.236C350.125 95.2961 348.082 88.5325 348.082 79.9382C348.082 72.7418 350.179 66.5108 354.366 61.2517C359.411 54.8077 366.014 51.5856 374.182 51.5856C379.014 51.5856 383.794 52.7706 388.52 55.1272V102.326V102.326Z" fill="white"/>
<path d="M510.459 23.2267C512.716 23.2267 514.593 22.4478 516.097 20.89C517.602 19.3323 518.354 17.4283 518.354 15.1716C518.354 13.0214 517.602 11.1707 516.097 9.61293C514.593 8.05517 512.716 7.27629 510.459 7.27629C508.309 7.27629 506.459 8.05517 504.901 9.61293C503.344 11.1707 502.565 13.0214 502.565 15.1716C502.565 17.4283 503.344 19.3323 504.901 20.89C506.459 22.4478 508.309 23.2267 510.459 23.2267Z" fill="white"/>
<path d="M490.969 23.2267C493.119 23.2267 494.969 22.4478 496.527 20.89C498.084 19.3323 498.863 17.4283 498.863 15.1716C498.863 13.0214 498.084 11.1707 496.527 9.61293C494.969 8.05517 493.119 7.27629 490.969 7.27629C488.712 7.27629 486.808 8.05517 485.251 9.61293C483.693 11.1707 482.914 13.0214 482.914 15.1716C482.914 17.4283 483.693 19.3323 485.251 20.89C486.802 22.4478 488.712 23.2267 490.969 23.2267Z" fill="white"/>
<path d="M381.911 23.2267C384.167 23.2267 386.044 22.4478 387.549 20.89C389.053 19.3323 389.805 17.4283 389.805 15.1716C389.805 13.0214 389.053 11.1707 387.549 9.61293C386.044 8.05517 384.167 7.27629 381.911 7.27629C379.761 7.27629 377.91 8.05517 376.353 9.61293C374.795 11.1707 374.016 13.0214 374.016 15.1716C374.016 17.4283 374.795 19.3323 376.353 20.89C377.91 22.4478 379.761 23.2267 381.911 23.2267Z" fill="white"/>
<path d="M362.42 23.2267C364.57 23.2267 366.421 22.4478 367.978 20.89C369.536 19.3323 370.315 17.4283 370.315 15.1716C370.315 13.0214 369.536 11.1707 367.978 9.61293C366.421 8.05517 364.57 7.27629 362.42 7.27629C360.164 7.27629 358.26 8.05517 356.702 9.61293C355.145 11.1707 354.366 13.0214 354.366 15.1716C354.366 17.4283 355.145 19.3323 356.702 20.89C358.253 22.4478 360.164 23.2267 362.42 23.2267Z" fill="white"/>
<path d="M635.133 133.581C632.983 133.581 631.133 134.36 629.575 135.918C628.018 137.475 627.239 139.326 627.239 141.476C627.239 143.733 628.018 145.637 629.575 147.195C631.133 148.752 632.983 149.531 635.133 149.531C637.39 149.531 639.294 148.752 640.851 147.195C642.409 145.637 643.188 143.733 643.188 141.476C643.188 139.326 642.409 137.475 640.851 135.918C639.3 134.36 637.39 133.581 635.133 133.581Z" fill="white"/>
<path d="M651.243 116.825H678.787H679.919H706.817C710.898 116.825 714.392 115.267 717.288 112.152C720.077 109.249 721.475 105.708 721.475 101.52V1.4778H707.783V99.2637C707.783 100.768 707.297 102.113 706.331 103.291C705.26 104.689 703.702 105.388 701.659 105.388H679.912H678.781H651.236H650.112H642.703C643.022 104.097 643.189 102.812 643.189 101.52V42.7184H629.497V99.2637C629.497 101.094 628.851 102.592 627.566 103.777C626.488 104.856 625.097 105.388 623.379 105.388H601.633H600.508H572.964H571.839H570.874C569.05 105.388 567.545 104.802 566.361 103.617C565.282 102.439 564.75 100.988 564.75 99.2704V1.4778H551.058V101.52C551.058 106.354 552.881 110.328 556.536 113.443C559.112 115.7 562.121 116.825 565.555 116.825H571.839H572.964H600.508H601.633H628.531C633.144 116.825 636.905 114.948 639.807 111.187H640.293L644.966 116.825H650.118H651.243Z" fill="white"/>
<path d="M115.189 89.0585L113.884 87.2944L111.961 88.3396C111.355 88.6724 97.0104 96.5943 90.2342 109.403C81.6274 125.666 81.6541 139.985 81.8471 143.833C79.9966 146.13 78.0796 148.353 76.0827 150.463V106.686C76.0827 106.6 76.0827 106.513 76.0827 106.427V71.7767H71.1969C70.8507 70.5119 70.4979 69.2803 70.1318 68.0754C93.6689 52.4911 83.9372 6.55057 83.4979 4.56676L83.3515 3.8944L82.8789 3.38846C82.5593 3.04229 79.6106 0 75.5169 0C72.8676 0 69.0602 1.31145 65.9716 7.56911C63.8149 11.9428 63.1293 16.3165 62.9762 19.9579C58.5497 12.1425 51.6071 1.28482 41.3695 1.28482C39.579 1.28482 37.7618 1.63099 35.9645 2.32332C26.3793 6.00469 27.3778 15.764 28.0368 22.2147C28.2764 24.5247 28.6292 28.013 27.9968 28.7187C27.9502 28.7786 27.1515 28.9317 25.9666 28.6854C24.6087 28.4058 23.2841 28.266 22.0393 28.266C12.5273 28.266 8.83304 36.361 8.20734 40.6415L8.00099 42.0928L9.15921 42.9915C11.1894 44.5692 13.2862 46.2401 15.4295 47.9577C29.3148 59.0351 45.0505 71.5837 58.8026 71.5837C61.1989 71.5837 63.4688 71.1643 65.5988 70.3987C65.732 70.8514 65.8651 71.3174 65.9982 71.7767H63.7284V111.626C62.3771 109.196 60.8994 106.893 59.3152 104.703L59.9076 104.616L58.989 101.774C58.7561 101.061 53.2246 84.2521 40.7771 74.2398C33.282 68.2019 25.1745 65.1396 16.6876 65.1396C10.7301 65.1396 6.15717 66.6774 3.76087 67.7026C3.30823 67.5761 3.04198 67.5029 3.00204 67.4895L2.84894 68.102C2.31643 68.355 1.95698 68.548 1.90373 68.5813L0 69.6797L0.818737 71.7168C1.07834 72.3559 7.29542 87.5141 19.2437 95.7223C31.4448 104.104 44.6645 105.355 51.454 105.355C52.2062 105.355 52.8785 105.342 53.4908 105.315C57.7177 110.714 61.2921 116.885 63.7217 123.922V150.364C62.8897 152.754 62.0044 155.157 61.0059 157.593C37.855 213.932 45.2302 230.402 45.5564 231.081L50.1094 228.937C50.0495 228.791 44.3915 214.624 62.3039 167.958C62.7765 167.692 63.2558 167.432 63.7217 167.153V240.973H76.0827V157.633C79.6039 154.298 82.9321 150.623 86.034 146.762C90.2741 145.59 106.389 140.471 114.037 128.335C127.77 106.56 115.715 89.7575 115.189 89.0585ZM22.0993 91.5682C15.1433 86.7884 10.2442 79.0929 7.64821 74.2532C16.9139 77.5484 35.2856 85.477 49.1841 100.269C42.581 99.9828 31.9507 98.3385 22.0993 91.5682ZM12.128 70.5651C13.5192 70.3454 15.0102 70.179 16.6876 70.179C23.9963 70.179 31.0455 72.8618 37.622 78.1675C43.2533 82.701 47.3536 88.9387 50.0894 94.078C37.2359 81.6292 21.7465 74.2731 12.128 70.5651ZM67.1165 59.2214C61.9844 45.6942 56.5262 37.7191 56.3797 37.5193L52.2594 40.4152C52.3925 40.6082 57.4381 47.9776 62.2706 60.5595C56.8923 56.6651 48.3388 49.602 40.9435 43.078L37.6153 46.8526C50.156 57.9233 57.3715 63.5419 61.6982 66.2647C60.7729 66.4377 59.8211 66.5509 58.8093 66.5509C46.8145 66.5509 31.8109 54.5815 18.5714 44.0233C16.8474 42.652 15.1633 41.3006 13.5125 40.0091C14.2247 37.6658 16.3215 33.2987 22.0393 33.2987C22.9446 33.2987 23.9231 33.4053 24.9548 33.6183C28.0434 34.2507 30.2533 33.7248 31.7311 32.0938C33.8678 29.7306 33.4884 26.0092 33.049 21.7021C32.2835 14.2262 32.197 9.16015 37.7684 7.02323C38.9865 6.55723 40.1914 6.31758 41.3695 6.31758C49.6301 6.31758 56.2333 18.1805 59.7811 24.5513C60.8595 26.4886 61.7115 28.013 62.4437 28.9783C63.0028 29.7239 63.9414 30.9555 65.4657 30.9555L66.6705 30.9022L67.416 30.1033C68.3679 29.0848 68.288 27.8732 68.1416 25.6697C67.9153 22.2413 67.5026 15.8505 70.4846 9.79923C71.5563 7.62237 73.3003 5.03276 75.5169 5.03276C76.7749 5.03276 78.0197 5.81829 78.7319 6.39746C79.7637 11.7431 85.2752 43.8769 72.2685 59.4611C73.7929 53.2234 75.204 44.0899 74.0525 33.9378L69.0535 34.5037C70.1784 44.4161 68.6142 53.4165 67.1165 59.2214ZM94.6873 111.759C98.2884 104.949 104.499 99.5701 108.985 96.2948C105.544 104.609 97.9356 121.459 87.1123 136.843C87.6914 130.759 89.482 121.598 94.6873 111.759ZM109.784 125.646C105.391 132.616 97.4098 137.029 91.4523 139.519C102.755 123.442 110.49 106.047 113.878 97.7061C115.928 103.658 117.259 113.79 109.784 125.646Z" fill="white"/>
</svg>
