<svg width="20" height="20" viewBox="0 0 20 20" fill="none" xmlns="http://www.w3.org/2000/svg">
<path d="M17.6667 15.1724H19.6666V11.5057L16.6667 6.83902H13V15.1724H14.3333" fill="#FDB62F"/>
<path d="M3 15.1724H0.333313V4.50571H13V15.1724H6.33332" fill="#FDB62F"/>
<path d="M2.33331 13.5057H0.333313V14.1724H2.33331V13.5057Z" fill="#F46B27"/>
<path d="M13 13.5057H7V14.1724H13V13.5057Z" fill="#F46B27"/>
<path d="M19.6666 13.5057H18.3333V14.1724H19.6666V13.5057Z" fill="#DBDBDB"/>
<path d="M13 5.50571H1.33331V6.17239H13V5.50571Z" fill="#F46B27"/>
<path d="M4.66668 16.8391C5.58716 16.8391 6.33336 16.0929 6.33336 15.1724C6.33336 14.2519 5.58716 13.5057 4.66668 13.5057C3.7462 13.5057 3 14.2519 3 15.1724C3 16.0929 3.7462 16.8391 4.66668 16.8391Z" fill="#126099"/>
<path d="M16 16.8391C16.9205 16.8391 17.6667 16.0929 17.6667 15.1724C17.6667 14.2519 16.9205 13.5057 16 13.5057C15.0795 13.5057 14.3333 14.2519 14.3333 15.1724C14.3333 16.0929 15.0795 16.8391 16 16.8391Z" fill="#126099"/>
<path d="M4.99999 14.839H4.33331V15.5057H4.99999V14.839Z" fill="#DBDBDB"/>
<path d="M16.3334 14.839H15.6667V15.5057H16.3334V14.839Z" fill="#DBDBDB"/>
<path d="M5.99999 2.83902H1.33331V3.5057H5.99999V2.83902Z" fill="#DBDBDB"/>
<path d="M0.66668 2.83902H0V3.5057H0.66668V2.83902Z" fill="#DBDBDB"/>
<path d="M17.5233 8.17236H14.3333V11.1724H19.4533L17.5233 8.17236Z" fill="#87CED9"/>
<path d="M13.6667 6.83902H13V15.1723H13.6667V6.83902Z" fill="#FFA83D"/>
<path d="M19.4533 11.1724L17.6433 8.35571C16.7537 9.41138 15.6166 10.23 14.3333 10.739V11.1724H19.4533V11.1724Z" fill="#6CBBC7"/>
<path d="M16.9467 6.48664C16.8854 6.39129 16.78 6.33363 16.6667 6.33332H13.3334V4.33332C13.3334 4.14934 13.184 4 13 4H0.33332C0.149336 4 0 4.14934 0 4.33332V15C0 15.184 0.149336 15.3333 0.33332 15.3333H2.69664C2.8873 16.4213 3.92363 17.1487 5.01164 16.9583C5.84129 16.813 6.49129 16.1633 6.63664 15.3333H14.03C14.2206 16.4213 15.257 17.1487 16.345 16.9583C17.1746 16.813 17.8246 16.1633 17.97 15.3333H19.6666C19.8506 15.3333 20 15.184 20 15V11.3333C20 11.2693 19.9813 11.207 19.9466 11.1533L16.9467 6.48664ZM17.3333 8.33332L18.8433 10.6666H14.6667V8.33332H17.3333ZM4.66668 16.3333C3.93035 16.3333 3.33336 15.7363 3.33336 15C3.33336 14.2637 3.93035 13.6667 4.66668 13.6667C5.40301 13.6667 6 14.2637 6 15C6 15.7363 5.40301 16.3333 4.66668 16.3333ZM4.66668 13C3.69133 13.001 2.85934 13.705 2.69668 14.6667H0.66668V14H2.33336V13.3333H0.66668V4.66664H12.6667V5.33332H1.33332V6H12.6666V13.3333H7V14H12.6667V14.6667H6.63668C6.47398 13.7053 5.64199 13.001 4.66668 13ZM16 16.3333C15.2637 16.3333 14.6667 15.7363 14.6667 15C14.6667 14.2637 15.2637 13.6667 16 13.6667C16.7363 13.6667 17.3333 14.2637 17.3333 15C17.3333 15.7363 16.7363 16.3333 16 16.3333ZM17.97 14.6666C17.7793 13.5786 16.743 12.8513 15.655 13.0416C14.8254 13.187 14.1754 13.8366 14.03 14.6666H13.3333V7H16.4833L16.9133 7.66668H14.3333C14.1493 7.66668 14 7.81601 14 8V11C14 11.184 14.1493 11.3333 14.3333 11.3333H19.27L19.3333 11.43V13.3333H18.3333V14H19.3333V14.6667H17.97V14.6666Z" fill="black"/>
<path d="M4.99999 14.839H4.33331V15.5057H4.99999V14.839Z" fill="black"/>
<path d="M16.3334 14.839H15.6667V15.5057H16.3334V14.839Z" fill="black"/>
<path d="M5.99999 2.83902H1.33331V3.5057H5.99999V2.83902Z" fill="black"/>
<path d="M0.66668 2.83902H0V3.5057H0.66668V2.83902Z" fill="black"/>
</svg>
