<svg width="20" height="19" viewBox="0 0 20 19" fill="none" xmlns="http://www.w3.org/2000/svg">
<path d="M20 0H0V6H1V17C1 17.5304 1.21071 18.0391 1.58579 18.4142C1.96086 18.7893 2.46957 19 3 19H17C17.5304 19 18.0391 18.7893 18.4142 18.4142C18.7893 18.0391 19 17.5304 19 17V6H20V0ZM2 2H18V4H2V2ZM17 17H3V6H17V17ZM5 13.45C5 12.9673 5.19175 12.5044 5.53307 12.1631C5.87438 11.8217 6.33731 11.63 6.82 11.63H6.91C6.575 10.04 7.59 8.482 9.18 8.147C9.58219 8.06199 9.99774 8.06233 10.3998 8.14799C10.8018 8.23365 11.1814 8.40273 11.514 8.64429C11.8467 8.88586 12.1249 9.19453 12.3307 9.55035C12.5365 9.90618 12.6654 10.3012 12.709 10.71C13.2227 10.699 13.7249 10.8627 14.1334 11.1742C14.542 11.4858 14.8327 11.9268 14.958 12.425C15.0833 12.9233 15.0358 13.4494 14.8233 13.9171C14.6108 14.3849 14.2458 14.7667 13.788 15H5.87C5.33 14.67 5 14.083 5 13.45Z" fill="#7C7C7C"/>
</svg>
